<svg xmlns="http://www.w3.org/2000/svg" viewBox="0 0 24 24" width="48px" height="48px" baseProfile="basic">
  <path fill="#4759d1" d="M19.699,7.503c-1.921,1.921-2.212,2.075-2.878,2.046c-0.513-0.022-1.138-0.366-1.571-0.799 c-0.488-0.488-0.869-1.146-0.802-1.763c0.07-0.643,0.625-1.262,2.048-2.686C17.387,3.41,17.232,2,15.417,2 c-1.265,0-3.769,0.609-5.357,2.555c-1.744,2.138-1.634,4.29-1.366,5.487c0.147,0.657-0.078,1.343-0.554,1.819l-5.198,5.198 c-1.083,1.083-1.243,2.865-0.218,4.003c1.093,1.214,2.965,1.251,4.105,0.11l5.311-5.311c0.476-0.476,1.162-0.701,1.819-0.554 c1.197,0.267,3.349,0.378,5.487-1.366C21.391,12.353,22,9.848,22,8.583C22,6.768,20.59,6.613,19.699,7.503z" />
</svg>